<svg width="762" height="762" viewBox="0 0 762 762" fill="none" xmlns="http://www.w3.org/2000/svg">
<path d="M739.944 174.635C721.161 142.28 671.483 111.949 543.014 145.732C500.136 116.144 449.982 98.8487 397.98 95.7185C345.978 92.5883 294.111 103.743 247.993 127.974C201.876 152.205 163.265 188.59 136.342 233.19C109.419 277.79 95.2087 328.904 95.2499 381C95.2499 388.144 95.5079 395.228 96.0238 402.253C1.66681 496.669 3.27416 554.831 22.1456 587.365C39.8859 617.964 75.307 631.031 121.087 631.031C150.227 631.031 183.594 625.733 219.164 616.416C262.051 645.963 312.201 663.219 364.189 666.317C416.176 669.416 468.021 658.239 514.114 633.995C560.207 609.752 598.792 573.365 625.696 528.773C652.599 484.18 666.796 433.08 666.75 381C666.75 373.826 666.482 366.742 665.946 359.688C708.541 316.885 736.967 275.719 746.313 240.625C754.707 209.61 747.474 187.523 739.944 174.635ZM381 166.688C429.542 166.753 476.628 183.271 514.573 213.545C552.518 243.818 579.08 286.06 589.925 333.375C547.687 371.267 491.133 412.522 422.434 452.021C357.723 489.198 292.804 518.577 234.642 537.299C203.321 507.916 181.551 469.8 172.153 427.894C162.756 385.989 166.166 342.226 181.94 302.282C197.714 262.337 225.126 228.054 260.62 203.876C296.114 179.698 338.054 166.742 381 166.688ZM83.9092 551.527C82.0935 548.342 83.4032 527.06 115.669 486.906C125.691 511.924 139.21 535.395 155.823 556.617C104.537 564.386 85.8738 554.861 83.9092 551.527ZM381 595.313C358.181 595.316 335.509 591.658 313.849 584.478C363.443 564.29 411.598 540.73 457.974 513.963C504.176 487.614 548.503 458.106 590.639 425.648C580.351 473.631 553.934 516.639 515.789 547.511C477.644 578.383 430.073 595.253 381 595.313ZM677.376 222.2C673.566 236.428 663.059 254.556 646.45 275.183C636.427 250.131 622.898 226.63 606.266 205.383C653.385 198.328 675.233 205.383 678.15 210.473C678.656 211.336 679.281 215.146 677.376 222.2Z" fill="#020020" fill-opacity="0.44"/>
</svg>
