<svg width="36" height="37" viewBox="0 0 36 37" fill="none" xmlns="http://www.w3.org/2000/svg">
<path d="M0 35.8797L19.5573 2.10365C20.4536 0.554977 22.4153 0.0392651 23.9403 0.949435L24.9938 1.57873L6.05763 34.2834C4.81829 36.423 2.10687 37.1367 0 35.8797Z" fill="#40FF02"/>
<path d="M10.7233 31.2414L23.5443 9.10105C24.4406 7.55238 26.4024 7.03667 27.9274 7.94684L28.9808 8.57613L16.7809 29.6466C15.5416 31.7862 12.8301 32.4999 10.7233 31.2429V31.2414Z" fill="#40FF02"/>
<path d="M16.1188 35.8843L27.6582 15.836C28.1404 15.0026 28.9928 14.4992 29.9404 14.4853C30.8881 14.4715 31.7526 14.9504 32.2559 15.7639L35.4419 20.9225C36.1477 22.066 36.187 23.5118 35.5431 24.6937C34.8993 25.8755 33.6735 26.6092 32.3435 26.6092H29.3449L31.417 22.8641L30.0296 20.6186L22.1704 34.2727C20.9371 36.4154 18.2272 37.1367 16.1173 35.8843H16.1188Z" fill="#B0FF96"/>
</svg>
