<svg width="52" height="53" viewBox="0 0 52 53" fill="none" xmlns="http://www.w3.org/2000/svg">
<g filter="url(#filter0_dddd_383_1002)">
<rect x="13.5" y="14" width="24" height="24" rx="12" fill="#010011" shape-rendering="crispEdges"/>
<path d="M30.3337 20.3144C30.4449 20.5075 30.5046 20.7648 30.4997 21.0298C30.4948 21.2948 30.4257 21.5458 30.3076 21.7276L23.8385 31.6918C23.7066 31.8947 23.5314 32.0053 23.3502 31.9998C23.1691 31.9943 22.9965 31.8732 22.8693 31.6624L20.683 28.0362C20.6251 27.9432 20.5791 27.8324 20.5477 27.7101C20.5163 27.5878 20.5001 27.4565 20.5 27.3238C20.4999 27.1912 20.516 27.0598 20.5473 26.9375C20.5786 26.8151 20.6245 26.7041 20.6823 26.611C20.7401 26.5178 20.8086 26.4444 20.884 26.395C20.9593 26.3456 21.0399 26.3212 21.121 26.3232C21.2022 26.3252 21.2823 26.3535 21.3567 26.4066C21.431 26.4597 21.4982 26.5364 21.5543 26.6323L23.3767 29.6547L29.469 20.2717C29.5871 20.09 29.7446 19.9925 29.9068 20.0005C30.0689 20.0085 30.2225 20.1214 30.3337 20.3144Z" fill="#40FF02"/>
</g>
<defs>
<filter id="filter0_dddd_383_1002" x="0.1" y="0.6" width="51.5" height="51.5" filterUnits="userSpaceOnUse" color-interpolation-filters="sRGB">
<feFlood flood-opacity="0" result="BackgroundImageFix"/>
<feColorMatrix in="SourceAlpha" type="matrix" values="0 0 0 0 0 0 0 0 0 0 0 0 0 0 0 0 0 0 127 0" result="hardAlpha"/>
<feOffset dx="5" dy="5"/>
<feGaussianBlur stdDeviation="4.55"/>
<feComposite in2="hardAlpha" operator="out"/>
<feColorMatrix type="matrix" values="0 0 0 0 0 0 0 0 0 0 0 0 0 0 0 0 0 0 0.25 0"/>
<feBlend mode="normal" in2="BackgroundImageFix" result="effect1_dropShadow_383_1002"/>
<feColorMatrix in="SourceAlpha" type="matrix" values="0 0 0 0 0 0 0 0 0 0 0 0 0 0 0 0 0 0 127 0" result="hardAlpha"/>
<feOffset dx="2" dy="2"/>
<feGaussianBlur stdDeviation="1"/>
<feComposite in2="hardAlpha" operator="out"/>
<feColorMatrix type="matrix" values="0 0 0 0 0 0 0 0 0 0 0 0 0 0 0 0 0 0 0.25 0"/>
<feBlend mode="normal" in2="effect1_dropShadow_383_1002" result="effect2_dropShadow_383_1002"/>
<feColorMatrix in="SourceAlpha" type="matrix" values="0 0 0 0 0 0 0 0 0 0 0 0 0 0 0 0 0 0 127 0" result="hardAlpha"/>
<feOffset dx="-5" dy="-5"/>
<feGaussianBlur stdDeviation="4.2"/>
<feComposite in2="hardAlpha" operator="out"/>
<feColorMatrix type="matrix" values="0 0 0 0 1 0 0 0 0 1 0 0 0 0 1 0 0 0 0.09 0"/>
<feBlend mode="normal" in2="effect2_dropShadow_383_1002" result="effect3_dropShadow_383_1002"/>
<feColorMatrix in="SourceAlpha" type="matrix" values="0 0 0 0 0 0 0 0 0 0 0 0 0 0 0 0 0 0 127 0" result="hardAlpha"/>
<feOffset dx="-2" dy="-2"/>
<feGaussianBlur stdDeviation="1.5"/>
<feComposite in2="hardAlpha" operator="out"/>
<feColorMatrix type="matrix" values="0 0 0 0 1 0 0 0 0 1 0 0 0 0 1 0 0 0 0.13 0"/>
<feBlend mode="normal" in2="effect3_dropShadow_383_1002" result="effect4_dropShadow_383_1002"/>
<feBlend mode="normal" in="SourceGraphic" in2="effect4_dropShadow_383_1002" result="shape"/>
</filter>
</defs>
</svg>
