<svg width="23" height="23" viewBox="0 0 23 23" fill="inherit" xmlns="http://www.w3.org/2000/svg">
<g clip-path="url(#clip0_402_19)">
<path d="M3.20094 12.4428L5.99402 9.64972C6.15115 9.49259 6.33783 9.38071 6.55404 9.31408C6.77026 9.24746 6.98821 9.23756 7.20788 9.28438L8.06819 9.46116C7.46323 10.1761 6.98789 10.8243 6.6422 11.4057C6.2965 11.9871 5.96652 12.6864 5.65225 13.5035L3.20094 12.4428ZM6.60684 13.9631C6.8504 13.1695 7.1961 12.4153 7.64393 11.7003C8.09177 10.9854 8.62602 10.3175 9.24671 9.69686C10.2288 8.71477 11.3485 7.98409 12.6059 7.50483C13.8633 7.02557 15.0338 6.88022 16.1174 7.06878C16.306 8.15301 16.1606 9.32382 15.6814 10.5812C15.2021 11.8386 14.4714 12.958 13.4893 13.9395C12.8765 14.5523 12.2145 15.0808 11.5033 15.5248C10.7921 15.9689 10.0321 16.3204 9.22314 16.5794L6.60684 13.9631ZM11.2148 11.9714C11.4741 12.2307 11.7885 12.3603 12.1581 12.3603C12.5277 12.3603 12.8418 12.2307 13.1004 11.9714C13.3597 11.7121 13.4893 11.3977 13.4893 11.0281C13.4893 10.6585 13.3597 10.3444 13.1004 10.0858C12.8412 9.8265 12.5267 9.69686 12.1572 9.69686C11.7876 9.69686 11.4735 9.8265 11.2148 10.0858C10.9555 10.345 10.8259 10.6595 10.8259 11.0291C10.8259 11.3986 10.9555 11.7127 11.2148 11.9714ZM10.7434 19.9853L9.68276 17.534C10.4999 17.2197 11.1991 16.8897 11.7805 16.544C12.3619 16.1983 13.0101 15.723 13.725 15.118L13.9018 15.9783C13.949 16.1983 13.9392 16.4164 13.8726 16.6326C13.806 16.8489 13.6939 17.0354 13.5365 17.1922L10.7434 19.9853Z" fill="inherit"/>
</g>
<defs>
<clipPath id="clip0_402_19">
<rect width="16" height="16" fill="inherit" transform="translate(11.6863 0.186279) rotate(45)"/>
</clipPath>
</defs>
</svg>
